<svg xmlns="http://www.w3.org/2000/svg" viewBox="0 0 121.68 130.12">
  <defs>
    <style>
      .a {
        isolation: isolate;
      }

      .b {
        fill: #f09500;
      }
    </style>
  </defs>
  <g>
    <g class="a">
      <path class="b" d="M27.4,86.51l1.28-12.23L52.21,42.79,55,39.2c1.48-2,2.52-3.36,3.1-4.22s1.37-2.09,2.37-3.72a23.34,23.34,0,0,0,2.21-4.57,19.69,19.69,0,0,0,.92-4.29,15.54,15.54,0,0,0,.1-1.75,6.49,6.49,0,0,0-1.18-4.31,4.43,4.43,0,0,0-3.54-1.65,7.87,7.87,0,0,0-1.13.1,6.53,6.53,0,0,0-5,3.29Q51,21,50.41,26.71L50,30.77H33.25l.41-4.37A41.13,41.13,0,0,1,36.1,15.9a28.23,28.23,0,0,1,5-8.32A20.65,20.65,0,0,1,49,2,28.8,28.8,0,0,1,60,0Q71.32,0,76.56,6q4.36,4.93,4.36,13.1a33.76,33.76,0,0,1-.2,3.54,22.41,22.41,0,0,1-.54,3.21q-.39,1.62-.72,2.91a16.46,16.46,0,0,1-1.16,3c-.54,1.13-1,2-1.2,2.59A20.6,20.6,0,0,1,75.53,37c-.79,1.22-1.3,2-1.54,2.44s-.85,1.27-1.83,2.57-1.55,2.07-1.74,2.31l-2,2.55c-1.14,1.45-1.77,2.25-1.87,2.39L48.25,72.9H73.06L71.63,86.51Z"/>
      <path class="b" d="M82.62,86.51l1.7-16h16l-1.69,16Z"/>
    </g>
    <rect class="b" x="0.62" y="102.43" width="120.44" height="9.69"/>
    <rect class="b" x="0.62" y="120.43" width="56.76" height="9.69"/>
  </g>
</svg>
