<svg xmlns="http://www.w3.org/2000/svg" viewBox="0 0 121.68 130.12">
  <defs>
    <style>
      .a {
        isolation: isolate;
      }

      .b {
        fill: #f09500;
      }
    </style>
  </defs>
  <g>
    <g class="a">
      <g class="a">
        <path class="b" d="M50.05,88a27.73,27.73,0,0,1-10.87-1.88,14.46,14.46,0,0,1-6.7-5.47,21,21,0,0,1-3-8.22,41.41,41.41,0,0,1-.41-5.34,51.69,51.69,0,0,1,.31-5.5l.36-3H47.07a12,12,0,0,0-.31,2.93c-.17,1.71-.26,3.24-.26,4.57a14.1,14.1,0,0,0,.62,4.73c.68,1.82,2.24,2.72,4.68,2.72a5.18,5.18,0,0,0,5-2.69q1.44-2.7,2.1-8.87a37.46,37.46,0,0,0,.21-3.8A13.32,13.32,0,0,0,58,52.09c-1.1-2.09-3.36-3.18-6.78-3.29h-3l1.34-12.33h2.67q5.38,0,7.68-2.87t3-9.46A26.72,26.72,0,0,0,63.05,21a10.91,10.91,0,0,0-.77-4.52c-.76-1.65-2.3-2.48-4.63-2.52a5.2,5.2,0,0,0-4.93,2.67,22.43,22.43,0,0,0-2.11,8c0,.06-.12.78-.25,2.13s-.21,2.06-.21,2.13H32.84l.51-5q1.24-11.34,8-17.56T59,0Q70.23,0,75.73,6q4.53,4.88,4.53,13.36a35.54,35.54,0,0,1-.21,3.8,25.67,25.67,0,0,1-4.29,12.27q-3.53,5-8.24,6.32,8.73,3.34,8.73,15.57c0,1.33-.07,2.74-.21,4.21a42.65,42.65,0,0,1-2.39,10.74,27.58,27.58,0,0,1-4.85,8.32A20,20,0,0,1,61,86.07,28.72,28.72,0,0,1,50.05,88Z"/>
        <path class="b" d="M82.62,86.51l1.69-16h16l-1.69,16Z"/>
      </g>
    </g>
    <rect class="b" x="0.62" y="102.43" width="120.44" height="9.69"/>
    <rect class="b" x="0.62" y="120.43" width="56.76" height="9.69"/>
  </g>
</svg>
