<svg xmlns="http://www.w3.org/2000/svg" viewBox="0 0 121.68 130.12">
  <defs>
    <style>
      .a {
        isolation: isolate;
      }

      .b {
        fill: #f09500;
      }
    </style>
  </defs>
  <g>
    <g class="a">
      <g class="a">
        <path class="b" d="M49.78,87.56a31,31,0,0,1-9.39-1.24,14.22,14.22,0,0,1-6.1-3.56,15.19,15.19,0,0,1-3.35-5.63,22.77,22.77,0,0,1-1.19-7.37v-.88c0-2.53.13-5.23.41-8.1H47.08c-.24,2.35-.36,4.38-.36,6.07a16.55,16.55,0,0,0,.52,4.73q.93,3,4.67,3h.36A5.18,5.18,0,0,0,54.48,74a7,7,0,0,0,1.66-1.17,6,6,0,0,0,1.27-2c.38-.92.69-1.77.94-2.57a26.91,26.91,0,0,0,.7-3.37c.22-1.46.39-2.72.52-3.79s.28-2.58.49-4.52q.36-4.31.36-7.63a9.38,9.38,0,0,0-1.35-5.32,4.71,4.71,0,0,0-4.2-2q-5.5,0-7.74,7.73H32L38.57,0H78.8L77.29,14.79H51.23L48.38,32.65a11.18,11.18,0,0,1,4.39-2.57,27.08,27.08,0,0,1,6.61-1.48c.73-.07,1.42-.1,2.08-.1q8.31-.06,12.25,6.38Q77,40.28,77,49.41a61.88,61.88,0,0,1-.36,6.44c-.35,3.29-.77,6.19-1.28,8.72a57.61,57.61,0,0,1-2,7.58A23.31,23.31,0,0,1,70,78.61a24.38,24.38,0,0,1-4.75,4.77,18.67,18.67,0,0,1-6.64,3.14A34,34,0,0,1,49.78,87.56Z"/>
        <path class="b" d="M82.84,86.06l1.72-16.15h16.19L99,86.06Z"/>
      </g>
    </g>
    <rect class="b" y="102.14" width="121.68" height="9.79"/>
    <rect class="b" y="120.32" width="57.35" height="9.79"/>
  </g>
</svg>
