<?xml version="1.0" encoding="utf-8"?>
<!-- Generator: Adobe Illustrator 25.2.0, SVG Export Plug-In . SVG Version: 6.00 Build 0)  -->
<svg version="1.1" id="レイヤー_1" xmlns="http://www.w3.org/2000/svg" xmlns:xlink="http://www.w3.org/1999/xlink" x="0px"
	 y="0px" viewBox="0 0 198.43 286.3" style="enable-background:new 0 0 198.43 286.3;" xml:space="preserve">
<style type="text/css">
	.st0{fill:#FFFFFF;}
</style>
<path class="st0" d="M97.96,18.03l5.42-3.62l5.39,3.64L107,11.79l5.14-4l-6.52-0.25l-2.21-6.12l-2.25,6.11l-6.51,0.22l5.12,4.02
	L97.96,18.03z M104.95,57.1l7.54,0.02c0.48-9.96,5.04-18.86,12.05-25.06c-5.4-4.31-12.15-7.02-19.51-7.39L104.95,57.1z M153.7,55.13
	l5.41-3.62l5.39,3.65l-1.78-6.27l5.14-4l-6.5-0.25l-2.22-6.12l-2.25,6.11l-6.51,0.22l5.11,4.02L153.7,55.13z M137.39,57.17
	c-0.41-8.97-4.28-17.03-10.32-22.89c-6.49,5.61-10.76,13.73-11.24,22.85L137.39,57.17z M90.74,57.06
	c-0.44-9.11-4.67-17.26-11.14-22.9C73.54,40,69.63,48.05,69.18,57.02L90.74,57.06z M132.36,29.79l5.42-3.62l5.39,3.65l-1.77-6.26
	l5.13-4l-6.51-0.25l-2.21-6.12l-2.26,6.11l-6.5,0.22l5.12,4.02L132.36,29.79z M94.08,57.07l7.54,0.02l0.07-32.44
	c-7.36,0.34-14.12,3.02-19.55,7.31C89.12,38.19,93.65,47.11,94.08,57.07z M83.98,129.26l-2.34,7.27l4.65,0.01L83.98,129.26z
	 M19.43,180.06c-0.1,46.09,37.31,83.67,83.4,83.78c16.56,0.04,32.44-4.79,46.17-13.88l0.09,0.09l2.56-1.83l3.54-2.54l-0.08-0.08
	c14.19-11.29,24.16-26.63,28.72-44.03l0.26,0.27l1.23-7.03l0.33-1.89l-0.04-0.04c0.64-4.18,0.98-8.35,0.99-12.45l0.24-108.48
	L19.67,71.58L19.43,180.06z M42.01,219.32c-6.67-10.38-10.78-22.56-11.39-35.64c2.7-1.15,5.96-0.64,8.16,1.56l13.42,13.49
	c2.87,2.88,2.86,7.59-0.02,10.46L42.01,219.32z M118.51,158l-5.97-0.01l-2.57,3.03l-0.04,17.94l2.76,3.03l5.55,0.01l2.78-3.02
	l0.01-4.07l-5.22-0.01c-0.51,0-0.92-0.42-0.92-0.93l0.01-5.42c0-0.51,0.42-0.92,0.93-0.92l12.07,0.03c0.51,0,0.92,0.42,0.93,0.93
	l0.02,13.14c0,0.23-0.09,0.45-0.23,0.62l-5.77,6.53c-0.17,0.2-0.43,0.31-0.69,0.31l-13.4-0.03c-0.27,0-0.52-0.11-0.7-0.31
	l-5.74-6.56c-0.15-0.17-0.23-0.39-0.23-0.62l0.05-24.62c0-0.25,0.1-0.49,0.28-0.66l5.66-5.51c0.17-0.16,0.41-0.26,0.65-0.26
	l13.6,0.03c0.24,0,0.47,0.1,0.65,0.27l5.64,5.54c0.18,0.17,0.28,0.42,0.28,0.66l-0.01,6.67c0,0.51-0.42,0.92-0.93,0.92l-5.98-0.01
	c-0.51,0-0.93-0.42-0.92-0.92l0.01-2.72L118.51,158z M109.5,210.28l-12.52,12.47c-2.88,2.87-7.59,2.86-10.46-0.03L73.1,209.24
	c-2.87-2.89-2.86-7.59,0.03-10.47l12.52-12.47L109.5,210.28z M67.91,193.54c-2.89,2.87-7.6,2.86-10.47-0.02l-13.42-13.5
	c-2.88-2.87-2.86-7.59,0.02-10.46l12.53-12.46l23.87,23.97L67.91,193.54z M46.37,225.41l11.02-10.97c2.89-2.87,7.6-2.86,10.47,0.02
	l13.41,13.48c2.87,2.88,2.86,7.59-0.02,10.46l-7.97,7.94C62.73,241.57,53.52,234.35,46.37,225.41z M102.86,252.74
	c-7.68-0.02-15.08-1.24-22.03-3.49l5.64-5.61c2.89-2.87,7.59-2.86,10.46,0.02l8.96,9C104.89,252.71,103.88,252.75,102.86,252.74z
	 M130.86,247.18c-4.92,2.05-10.12,3.56-15.52,4.49l-13.16-13.23c-2.87-2.88-2.86-7.59,0.02-10.46l12.52-12.47l23.86,23.97
	L130.86,247.18z M158.57,213.26c0,0.22-0.08,0.44-0.23,0.61l-5.77,6.54c-0.17,0.2-0.43,0.31-0.69,0.31l-13.4-0.03
	c-0.26,0-0.52-0.11-0.69-0.32l-5.74-6.56c-0.15-0.17-0.23-0.39-0.23-0.61l0.05-24.63c0-0.25,0.1-0.49,0.28-0.66l5.66-5.51
	c0.18-0.17,0.41-0.26,0.65-0.26l13.6,0.03c0.24,0,0.47,0.09,0.65,0.27l5.64,5.54c0.17,0.18,0.28,0.42,0.28,0.67L158.57,213.26z
	 M132.57,139.6l12.46-12.4c2.88-2.87,7.59-2.86,10.46,0.02l13.42,13.48c2.87,2.88,2.86,7.59-0.02,10.45l-12.45,12.4L132.57,139.6z
	 M175.51,180.41c0,0.76-0.04,1.51-0.06,2.26l-13.8-13.86l12.46-12.4c0.44-0.44,0.94-0.79,1.46-1.1L175.51,180.41z M175.7,97.02
	l-0.09,39.57c-0.52-0.31-1.02-0.66-1.46-1.11L160.73,122c-2.87-2.88-2.86-7.59,0.02-10.46l13.48-13.42
	C174.68,97.68,175.18,97.33,175.7,97.02z M131.18,82.93l38.33,0.09c2.34,2.9,2.2,7.18-0.5,9.87l-13.48,13.42
	c-2.88,2.87-7.59,2.86-10.46-0.02l-13.43-13.49C128.96,90.1,128.83,85.81,131.18,82.93z M126.4,98.02l13.43,13.48
	c2.87,2.88,2.86,7.59-0.02,10.46l-12.46,12.4l-1.7-1.71l-22.16-22.26l12.45-12.4C118.82,95.12,123.54,95.13,126.4,98.02z
	 M111.22,82.88c2.34,2.9,2.2,7.18-0.5,9.87l-12.46,12.4L76.02,82.8L111.22,82.88z M68.12,152.6l11.83-36.44
	c0.12-0.38,0.48-0.64,0.88-0.64l6.37,0.01c0.41,0,0.76,0.26,0.88,0.64l11.58,36.24c0.11,0.15,0.17,0.34,0.17,0.54
	c0,0.51-0.41,0.92-0.93,0.92l-6.46-0.01c-0.4,0-0.76-0.26-0.88-0.65l-3.18-10.08l-8.83-0.02l-3.23,10.07
	c-0.12,0.38-0.48,0.65-0.88,0.64L69,153.81c-0.29,0-0.57-0.14-0.75-0.38C68.07,153.19,68.03,152.88,68.12,152.6z M40.63,90.21
	c0-0.51,0.42-0.92,0.93-0.92l6.01,0.01c0.51,0,0.92,0.42,0.92,0.93l-0.03,12.92L58.65,89.7c0.18-0.23,0.45-0.37,0.74-0.37l7.36,0.02
	c0.35,0,0.67,0.2,0.83,0.52c0.16,0.31,0.12,0.69-0.1,0.97l-13.47,17.42l13.34,18c0.22,0.17,0.37,0.44,0.37,0.74
	c0,0.51-0.42,0.93-0.93,0.92l-0.05,0l-7.54-0.04c-0.29,0-0.56-0.14-0.74-0.37l-10.05-13.4l-0.03,12.82c0,0.51-0.42,0.93-0.93,0.92
	l-5.98-0.01c-0.51,0-0.93-0.42-0.92-0.93L40.63,90.21z M30.64,131.07l20.7,20.79l-12.52,12.46c-2.23,2.22-5.54,2.7-8.25,1.48
	L30.64,131.07z M142.26,189.52l-2.57,3.03l-0.04,17.94l2.76,3.04l5.55,0.01l2.78-3.03l0.04-17.94l-2.55-3.04L142.26,189.52z
	 M63.52,29.63l5.41-3.62l5.4,3.65l-1.77-6.26l5.13-4l-6.5-0.25l-2.22-6.12l-2.25,6.11l-6.51,0.22l5.11,4.02L63.52,29.63z
	 M42.08,54.88l5.41-3.62l5.39,3.65l-1.77-6.27l5.13-4l-6.5-0.25l-2.22-6.12l-2.25,6.11l-6.5,0.22l5.12,4.02L42.08,54.88z
	 M194.27,61.35L9.67,60.94L1.65,71.58L1.39,188.63c-0.12,52.96,42.87,96.14,95.82,96.26c42.59,0.09,76.2-28.26,91.46-66.13
	c5.17-11.58,8.07-24.39,8.1-37.86l0.26-116.75C197.04,62.6,195.8,61.35,194.27,61.35z M193.18,180.57
	c-0.11,49.72-40.65,90.09-90.37,89.97s-90.08-40.65-89.97-90.37L13.1,66.16c0-0.72,0.58-1.3,1.31-1.3l177.73,0.39
	c0.72,0,1.3,0.59,1.3,1.31L193.18,180.57z"/>
</svg>
