<svg xmlns="http://www.w3.org/2000/svg" viewBox="0 0 432 246">
  <defs>
    <style>
      .a {
        fill: #231815;
      }

      .b {
        fill: #ec6d5b;
      }

      .c {
        fill: #8dc6ad;
      }

      .d {
        fill: #2351a2;
      }

      .e {
        fill: #040000;
      }
    </style>
  </defs>
  <path class="a" d="M255.73,217.55a13.45,13.45,0,1,1-.08-26.9,13.25,13.25,0,0,1,11.49,6.25,9,9,0,0,1,1.67,4.11H261.9a6.72,6.72,0,0,0-6.29-4.54c-4.19,0-6.91,3.57-6.91,7.57s2.72,7.68,7,7.68c3,0,5-1.78,6.25-4.34h6.91a13.21,13.21,0,0,1-13.08,10.17"/>
  <polygon class="a" points="294.77 217.04 294.77 191.16 301.38 191.16 301.38 211.22 309.02 211.22 309.02 217.04 294.77 217.04"/>
  <path class="a" d="M351.16,214.75a9.85,9.85,0,0,1-7.34,2.8,10.12,10.12,0,0,1-7.37-2.76c-2.37-2.37-2.6-4.73-2.6-8V191.15h6.59v15.68c0,2.45.43,4.89,3.38,4.89s3.3-2.36,3.3-4.89V191.15h6.6v15.68c0,3.07-.34,5.67-2.56,7.92"/>
  <path class="a" d="M397.84,214.79c-2.45,2.29-5.32,2.25-8.5,2.25h-8.19V191.15h8c2.25,0,5.5-.08,7.37,1.44a6.92,6.92,0,0,1,2.44,5.36,5.8,5.8,0,0,1-3,5.23,5.85,5.85,0,0,1,4.27,6,7.61,7.61,0,0,1-2.37,5.59m-8-17.81h-2.33v4h2.33c1.47,0,2.79-.35,2.79-2s-1.32-2-2.79-2m.77,9.54h-3.1v4.7h3.1c1.63,0,3.3-.55,3.3-2.45s-1.67-2.25-3.3-2.25"/>
  <polygon class="b" points="32.25 198 47.21 198 47.21 169.42 32.25 145.87 32.25 198"/>
  <polygon class="b" points="47.21 108.06 47.21 77.28 32.25 77.28 32.25 131.76 47.21 108.06"/>
  <polygon class="c" points="73.82 137.55 114 77.28 99.04 77.28 58.86 137.55 101.57 198 116.53 198 73.82 137.55"/>
  <polygon class="b" points="81.6 77.28 66.64 77.28 47.21 108.06 47.21 131.76 81.6 77.28"/>
  <rect class="c" x="1.49" y="77.28" width="14.96" height="120.72"/>
  <polygon class="b" points="47.21 169.42 65.37 198 80.33 198 47.21 145.88 47.21 169.42"/>
  <polygon class="d" points="99.04 77.28 81.6 77.28 47.21 131.76 47.21 108.06 32.25 131.76 32.25 77.28 16.45 77.28 16.45 198 32.25 198 32.25 145.87 47.21 169.42 47.21 145.87 80.33 198 101.57 198 58.86 137.55 99.04 77.28"/>
  <path class="e" d="M74.73,137.54l40.66-61H66.23L48,105.47V76.53H.74V198.75H48V172h0l17,26.77h53ZM67.05,78H80.24L52.33,122.24,48,129.17V108.28h0ZM46.47,107.83h0L33,129.17V78H46.47ZM2.24,197.25V78H15.69V197.25Zm44.23,0H33v-48.8l13.47,21.19Zm19.32,0L48,169.2V148.45l31,48.8Zm15,0L63.29,169.78,46.47,143.3h0v23.54l-1.38-2.18L31.51,143.3h0v53.95H17.19V78H31.5v56.32h0l8.82-14,6.13-9.71v23.69L82,78H97.64L58,137.56l42.18,59.69Zm21.21,0L59.77,137.54,99.44,78H112.6L72.91,137.56l42.18,59.69Z"/>
  <polygon class="b" points="134.13 244.37 149.08 244.37 155.42 226.82 140.46 226.82 134.13 244.37"/>
  <polygon class="b" points="161.64 161.12 148.97 202.38 163.93 202.38 169.06 185.66 161.64 161.12"/>
  <polygon class="c" points="188.72 123.65 173.76 123.65 221.72 244.37 236.68 244.37 188.72 123.65"/>
  <polygon class="b" points="174.12 202.38 189.08 202.38 176.59 161.12 169.06 185.66 174.12 202.38"/>
  <polygon class="c" points="149.33 123.65 101 244.37 115.97 244.37 164.29 123.65 149.33 123.65"/>
  <polygon class="b" points="182.45 226.81 188.24 244.37 203.2 244.37 197.41 226.81 182.45 226.81"/>
  <path class="d" d="M164.29,123.65,116,244.37h18.15l6.34-17.56h56.95l5.79,17.56h18.52l-48-120.72Zm24.79,78.73H149l12.66-41.26,7.43,24.54,7.54-24.54Z"/>
  <g>
    <path class="e" d="M237.78,245.12,189.42,123.38l-.19-.47H148.82L100.31,244.09l-.41,1h49.71l6.33-17.56h26l5.8,17.56h50.08Zm-2.2-1.5H222.23l-17.46-43.93-29.9-75.29h13.34ZM149.83,124.4h13.35L120.26,231.63l-4.8,12H102.11Zm-1.27,119.22H135.19l.9-2.49,4.9-13.57h13.36Zm7.92-17.55H139.94l-6.34,17.55H117.07l40.75-101.78,7-17.43h8.46l16.61,41.79,30.76,77.42H203.74L198,226.07H156.48Zm32.3,17.55-5.29-16.06h13.37l5.31,16.06Z"/>
    <path class="e" d="M176.6,158.56h0l-7.47,24.33-.06.21-7.43-24.54L148,203.13h42.14L176.6,158.55ZM150,201.64l11.65-38,6.65,22-4.91,16Zm15,0,4.11-13.42h0l4.06,13.42Zm9.74,0-4.84-16,6.75-22,11.48,38Z"/>
  </g>
  <path class="b" d="M183.16,62.62c0,21.36,13,37.46,35.11,37.46a33.28,33.28,0,0,0,7.06-.74c-17.26-3.39-27.22-18-27.22-36.72,0-16.37,10.21-29.64,25.3-33a32.37,32.37,0,0,0-7.31-.83c-19.19,0-32.94,14.84-32.94,33.84"/>
  <path class="c" d="M277.09,44.52h15C284.81,18.64,258.21,1.63,232,1.63a72.54,72.54,0,0,0-7.7.43C248,4.85,270.52,21,277.09,44.52"/>
  <path class="c" d="M295.48,56.1h-15c.17,2,.36,4.17.36,6.16,0,34.17-24,60.82-57,64.37a66.5,66.5,0,0,0,7.38.42c36.92,0,64.61-28,64.61-64.79,0-2-.18-4.17-.37-6.16"/>
  <path class="b" d="M259.83,80.72h-15C242.39,91,234.82,97.28,225.33,99.34a40.8,40.8,0,0,0,7.89.74c12.67,0,23.53-6.69,26.61-19.36"/>
  <rect class="b" x="209.04" y="56.11" width="14.96" height="24.61"/>
  <path class="c" d="M167.35,63.89c0-33.54,25-58.37,56.92-61.83A63.17,63.17,0,0,0,217,1.63c-35.47,0-64.61,26.06-64.61,62.26,0,35.65,28.41,63.16,63.89,63.16a70,70,0,0,0,7.58-.42c-32-3.51-56.51-29.6-56.51-62.74"/>
  <path class="b" d="M231.06,28.78a35.17,35.17,0,0,0-7.65.83,28.77,28.77,0,0,1,19.11,14.92h15a29,29,0,0,0-26.42-15.75"/>
  <path class="d" d="M280.89,62.26c0-2-.18-4.16-.37-6.16H224V80.72h35.84c-3.08,12.67-13.93,19.37-26.61,19.37a40.79,40.79,0,0,1-7.89-.75,33.35,33.35,0,0,1-7.06.75c-22.08,0-35.11-16.11-35.11-37.47,0-19,13.75-33.85,32.94-33.85a31.8,31.8,0,0,1,7.31.85,34.53,34.53,0,0,1,7.64-.85,29,29,0,0,1,26.43,15.75h19.61C270.51,21,248,4.85,224.26,2.06c-31.89,3.47-56.92,28.29-56.92,61.83,0,33.14,24.57,59.23,56.52,62.75,33.06-3.56,57-30.21,57-64.38"/>
  <path class="e" d="M296.23,56l-.06-.67H208.29V81.47h35.6c-2.49,8.81-9.19,15-18.56,17.1-16.33-3.28-26.47-17-26.47-35.95,0-15.94,9.86-28.88,24.55-32.23a27.91,27.91,0,0,1,18.45,14.48l.21.4h51l-.26-1C285.73,19.15,260.15.88,232,.88a72.58,72.58,0,0,0-7.67.43h0A63.49,63.49,0,0,0,217,.88c-36.65,0-65.36,27.68-65.36,63,0,35.83,28.39,63.91,64.63,63.91a72.6,72.6,0,0,0,7.58-.41h0a69.22,69.22,0,0,0,7.36.41c37.26,0,65.35-28.18,65.35-65.54C296.59,60.21,296.41,58,296.23,56ZM223.25,80H209.78V56.85h13.47Zm22.2,1.5h13.41A23.52,23.52,0,0,1,252,92.64c-4.69,4.27-11.2,6.7-18.8,6.7-.71,0-1.41,0-2.11,0l-.52,0c-.52,0-1-.07-1.55-.12h-.12A25,25,0,0,0,245.45,81.47ZM197.37,62.62c0,18.3,9.17,32,24.19,36.55l-1.05.09-.55,0-1.55,0h-.14A36.83,36.83,0,0,1,205,97c-13-5-21.12-17.55-21.12-34.37,0-18.27,13-32.2,30.49-33,.56,0,1.13-.05,1.71-.05s1.26,0,1.9.06l.57.05c.45,0,.89.07,1.32.13H220C206.34,34.29,197.37,47.09,197.37,62.62ZM243,43.77a29.41,29.41,0,0,0-16.21-14l.26,0c.4-.05.81-.08,1.22-.12l.81-.06c.49,0,1,0,1.46-.05l.55,0a32,32,0,0,1,4.07.26l.25,0c.57.08,1.13.17,1.69.28.15,0,.29.06.44.09.49.11,1,.21,1.45.34l.53.16c.44.12.88.25,1.31.39l.59.22c.4.14.8.29,1.19.45l.62.27c.37.17.74.33,1.1.51l.63.33c.34.19.69.37,1,.57s.43.25.64.38l1,.62.62.44.9.67.6.49c.29.24.57.49.85.74l.57.53c.28.26.54.53.81.8s.36.38.53.57.52.57.77.87.33.39.49.59.49.63.73.95l.44.61c.24.35.47.69.7,1.05.13.2.26.4.38.61s.17.28.25.42Zm15,0c-.12-.23-.25-.43-.38-.65s-.4-.7-.61-1l-.51-.77c-.23-.33-.44-.66-.68-1s-.36-.47-.54-.7-.48-.63-.73-.94l-.57-.64c-.26-.3-.53-.6-.8-.89s-.39-.38-.59-.58-.57-.57-.86-.84l-.6-.51c-.31-.27-.62-.54-.94-.8l-.6-.45c-.34-.25-.67-.51-1-.74s-.41-.26-.61-.39c-.36-.24-.71-.47-1.08-.69-.2-.12-.42-.22-.62-.34-.38-.21-.75-.42-1.14-.61l-.63-.3c-.4-.18-.79-.37-1.2-.54l-.64-.25c-.42-.16-.83-.32-1.25-.46-.22-.08-.44-.14-.67-.21-.42-.13-.84-.27-1.28-.38l-.71-.17c-.43-.1-.85-.21-1.29-.29l-.79-.13c-.42-.07-.84-.15-1.27-.2s-.62-.06-.94-.09-.77-.09-1.17-.12c-.57,0-1.15,0-1.73-.05h-.43c-.65,0-1.29,0-1.94,0-.48,0-1,.07-1.45.12l-.47,0c-.5.05-1,.12-1.5.2-.14,0-.28,0-.42.06q-.56.09-1.11.21l-.75.14-.38-.08c-.47-.1-.93-.19-1.4-.27l-.38-.06c-.48-.08-1-.15-1.45-.2-.2,0-.41,0-.62-.06-.41,0-.81-.08-1.22-.1-.62,0-1.24,0-1.86,0s-1.2,0-1.79,0c-18.31.89-31.9,15.45-31.9,34.55h0c0,9.67,2.58,18,7.18,24.37,6.27,8.72,16.3,13.84,28.67,13.84h0c.61,0,1.22,0,1.82,0l.36,0c.49,0,1-.07,1.45-.12l.48-.06c.44,0,.87-.1,1.3-.17l.73-.14c.31,0,.62-.1.93-.17l.62.11c.42.07.84.15,1.26.21l.88.1c.35,0,.7.09,1.06.12,1.34.13,2.69.19,4.06.19,13.88,0,24.35-7.63,27.34-19.93l.23-.93h-36V56.85h55.09c.06.69.12,1.4.17,2.12,0,.12,0,.23,0,.34s0,.47,0,.71c0,.75.07,1.51.07,2.23,0,23.93-12.19,44.46-31.13,55.46l-.09.05c-.66.38-1.33.74-2,1.1l-.52.28c-.55.28-1.12.55-1.68.82-.31.15-.61.31-.92.45s-.91.4-1.37.59-.86.39-1.3.56L240,122c-.53.2-1.07.42-1.61.61-.3.1-.61.19-.91.3-.63.21-1.26.42-1.9.61l-.69.19c-.72.21-1.44.42-2.17.6l-.5.12c-.81.19-1.61.38-2.43.54l-.39.07c-.86.17-1.72.33-2.59.46l-.32.05c-.87.13-1.75.25-2.64.34-.81-.09-1.61-.2-2.42-.32l-.52-.07c-.78-.12-1.55-.27-2.31-.41L218,125c-.72-.15-1.44-.32-2.15-.49l-.75-.16c-.66-.17-1.31-.36-2-.55l-.86-.23c-.6-.18-1.19-.38-1.78-.58l-1-.32-1.56-.59-1.15-.43-1.37-.59c-.42-.18-.85-.35-1.27-.54s-.79-.38-1.18-.57l-1.39-.67c-.33-.17-.65-.35-1-.53-.51-.27-1-.54-1.53-.82l-.79-.48c-.54-.32-1.09-.64-1.63-1L196,116c-.57-.38-1.14-.75-1.7-1.14l-.48-.35c-.6-.43-1.19-.86-1.77-1.3l-.31-.25c-.63-.49-1.26-1-1.87-1.51l-.17-.15c-.65-.55-1.29-1.11-1.91-1.69l-.09-.09c-.65-.6-1.29-1.22-1.91-1.85h0a61,61,0,0,1-9.93-13.32l-.06-.12c-.43-.78-.84-1.56-1.23-2.36-.05-.09-.09-.19-.13-.28-.37-.75-.72-1.5-1-2.26-.06-.13-.11-.26-.16-.38-.32-.74-.63-1.48-.91-2.23-.09-.23-.17-.47-.25-.7-.25-.66-.49-1.31-.71-2-.12-.34-.21-.7-.32-1.05-.18-.56-.36-1.11-.52-1.67s-.28-1.08-.41-1.63c-.1-.38-.21-.77-.3-1.16-.16-.7-.3-1.41-.44-2.12,0-.24-.11-.47-.15-.71-.16-.85-.29-1.71-.41-2.56l-.06-.33a65.51,65.51,0,0,1-.6-8.92c0-.79,0-1.57.05-2.35,0-.21,0-.41,0-.62.08-1.7.24-3.38.46-5,0-.26,0-.52.09-.77.09-.64.2-1.26.31-1.89l.15-.95c.1-.53.23-1.05.34-1.58s.16-.81.26-1.22.23-.87.35-1.31.24-1,.37-1.43.24-.77.36-1.15.31-1,.49-1.54c.11-.34.24-.66.36-1,.2-.54.39-1.09.6-1.63.11-.29.24-.57.36-.85.23-.58.47-1.16.72-1.73.11-.23.23-.46.33-.7.28-.61.56-1.21.86-1.81l.37-.68c.31-.59.61-1.18.94-1.76l.39-.66c.34-.58.67-1.15,1-1.72l.44-.67c.35-.55.7-1.1,1.08-1.63.17-.25.35-.49.53-.73.36-.51.72-1,1.09-1.5.22-.3.46-.58.69-.87l1-1.29c.29-.34.6-.67.9-1s.61-.71.93-1.06.74-.78,1.12-1.16.52-.56.79-.83c.45-.45.92-.88,1.39-1.32l.62-.58c.54-.49,1.11-1,1.67-1.45L190,17c.65-.54,1.32-1.07,2-1.58l.18-.15a64.88,64.88,0,0,1,32.07-12.5,66.31,66.31,0,0,1,17.45,4.54l.14.06,1.77.77.29.13,1.63.77.39.19,1.52.79.46.24c.48.26,1,.53,1.42.8l.51.3,1.35.82.54.33,1.28.84.56.38c.41.28.81.57,1.21.86.19.14.39.27.57.41.4.29.78.59,1.16.89.2.14.39.29.58.44l1.11.91.57.48c.36.3.71.62,1.06.93l.56.51c.35.31.68.63,1,.95l.55.54c.33.32.65.65,1,1l.54.56.92,1,.52.59c.3.34.59.68.88,1l.51.61.82,1.05c.17.21.33.42.49.64s.52.71.78,1.06l.47.67.73,1.08c.15.23.31.46.45.7s.46.73.68,1.1.29.47.43.71.43.74.63,1.12.28.49.41.74l.58,1.13c.13.25.26.51.38.77s.36.75.53,1.13l.36.81c.16.37.32.75.47,1.13l.33.85c.15.37.29.75.42,1.13s.21.58.31.88.25.74.36,1.12l.15.5Zm33.13,0h-13.4l-.22-.7c-.11-.37-.22-.73-.34-1.09s-.2-.57-.3-.85-.26-.76-.4-1.14c-.05-.13-.11-.27-.16-.41-.35-.9-.72-1.79-1.12-2.67-.1-.22-.19-.44-.29-.65-.17-.38-.36-.74-.54-1.11s-.25-.52-.38-.77-.37-.71-.56-1.06l-.43-.79c-.19-.34-.39-.67-.59-1l-.47-.79-.62-1-.51-.78c-.22-.32-.43-.64-.65-.95s-.37-.52-.55-.78l-.67-.92-.6-.78-.69-.88-.66-.79-.69-.82-.75-.84-.66-.74c-.47-.5-.95-1-1.43-1.48l-.6-.58-.94-.91-.68-.61-.92-.83c-.23-.21-.47-.4-.71-.6l-.95-.8-.72-.57-1-.77-.73-.55-1-.74-.73-.51-1.11-.74-.71-.47-1.2-.74-.66-.4c-.45-.27-.91-.53-1.37-.78l-.54-.3c-.64-.35-1.28-.69-1.94-1h0c-.67-.34-1.35-.66-2-1l-.38-.17-1.65-.73-.67-.27-1.4-.56-.79-.29-1.31-.47-.86-.29-1.27-.41-.91-.27-1.25-.36-1-.25q-.61-.17-1.23-.3l-1-.24-.32-.07H232C258.7,2.38,283.9,20.1,291.05,43.77ZM153.14,63.89A60,60,0,0,1,171.9,19.73C183.79,8.54,199.8,2.38,217,2.38h.45l-1.35.31-.48.11c-.79.19-1.57.39-2.35.6l-.38.11c-.81.22-1.6.46-2.39.71l-.3.1c-.81.26-1.61.54-2.4.83l-.23.09c-.81.3-1.61.62-2.4,1l-.17.07c-.81.34-1.61.69-2.39,1.06l-.13.06c-.8.38-1.59.77-2.37,1.18l-.08,0c-.79.42-1.57.84-2.33,1.29l-.06,0c-.77.45-1.53.91-2.28,1.39l-.05,0c-.75.47-1.49,1-2.22,1.48l0,0c-.73.51-1.44,1-2.15,1.57l0,0c-.7.53-1.39,1.09-2.07,1.65l0,0c-.68.56-1.34,1.14-2,1.73l-.05,0c-.64.58-1.27,1.18-1.88,1.79l-.06.05c-.61.61-1.2,1.22-1.79,1.85l-.07.08q-.85.93-1.68,1.89l-.09.12c-.54.63-1.06,1.28-1.57,1.93l-.12.15c-.5.64-1,1.3-1.45,2l-.14.19c-.46.65-.9,1.31-1.34,2l-.15.23c-.43.66-.83,1.33-1.23,2-.06.1-.12.19-.17.29-.39.66-.75,1.32-1.11,2l-.19.34c-.35.66-.68,1.33-1,2-.07.13-.14.26-.2.4-.31.66-.6,1.33-.89,2-.07.15-.14.3-.2.46-.28.66-.54,1.32-.79,2-.06.18-.14.35-.2.53-.24.65-.46,1.31-.68,2-.07.2-.14.39-.2.59-.21.65-.39,1.31-.58,2-.06.22-.13.44-.19.66-.17.64-.33,1.3-.48,1.95l-.18.71c-.14.65-.26,1.3-.39,2l-.15.75c-.11.64-.21,1.3-.3,2,0,.27-.09.53-.12.8-.09.66-.16,1.32-.22,2,0,.26-.07.53-.09.79-.06.71-.1,1.43-.14,2.15,0,.22,0,.45,0,.67,0,.95-.07,1.9-.07,2.86h0c0,.07,0,.15,0,.22,0,.9,0,1.78.06,2.67,0,.37,0,.73.07,1.1,0,.59.06,1.17.11,1.75,0,.41.08.81.13,1.21s.1,1.08.17,1.61.12.82.18,1.23.15,1,.24,1.55.15.8.23,1.2.19,1,.3,1.54l.27,1.13c.13.52.24,1.05.38,1.57.09.35.2.7.3,1,.15.53.29,1.07.46,1.6.1.33.22.65.32,1,.18.54.35,1.08.55,1.61.1.31.23.61.34.91.21.55.41,1.1.63,1.64.11.28.24.56.36.83.23.56.47,1.12.72,1.66l.36.77c.27.56.54,1.12.82,1.67.12.23.24.46.37.68.29.57.59,1.14.91,1.69.12.21.24.42.37.62.33.57.66,1.14,1,1.7l.36.54c.36.57.73,1.14,1.12,1.7.11.17.23.33.34.49.4.57.81,1.13,1.22,1.69.11.15.23.29.34.43.43.57.87,1.13,1.33,1.68l.31.37c.47.56,1,1.12,1.43,1.66l.31.33c.5.55,1,1.09,1.53,1.63l.29.28c.53.54,1.08,1.07,1.63,1.59l.28.26c.56.52,1.13,1,1.72,1.54l.27.22c.59.51,1.2,1,1.81,1.49l.26.19c.62.49,1.25,1,1.9,1.43a2.2,2.2,0,0,0,.25.17c.65.47,1.31.92,2,1.36l.26.16c.67.44,1.35.86,2,1.28l.27.15c.69.41,1.39.81,2.1,1.19l.28.15c.71.38,1.43.74,2.15,1.1l.3.14c.73.35,1.46.68,2.2,1l.33.14c.73.31,1.47.62,2.22.9l.37.14c.74.28,1.49.55,2.25.8l.41.14c.74.24,1.49.48,2.25.7l.47.13c.74.21,1.49.4,2.25.59l.53.12c.48.12.94.24,1.42.34h-.77C180.87,126.3,153.14,98.89,153.14,63.89Zm78.1,62.41h-.52l.67-.16c.69-.15,1.37-.3,2.05-.48l.5-.14a64.36,64.36,0,0,0,9.65-3.38l.5-.22c.61-.27,1.21-.57,1.81-.86l.75-.37c.56-.28,1.1-.58,1.65-.88l.85-.46c.52-.29,1-.6,1.54-.91.29-.18.59-.35.88-.54.49-.3,1-.62,1.46-.94l.89-.6c.47-.32.93-.65,1.38-1,.3-.22.6-.44.89-.67q.68-.49,1.32-1l.87-.71c.43-.36.85-.71,1.26-1.07s.57-.51.85-.77.81-.73,1.2-1.11.55-.53.82-.8l1.15-1.16c.27-.28.52-.56.78-.85s.74-.79,1.1-1.2l.74-.88c.35-.42.71-.83,1.05-1.26.23-.28.45-.58.68-.87q1.78-2.31,3.36-4.79c.24-.38.49-.75.72-1.13l.71-1.23c.24-.41.48-.81.7-1.23s.44-.82.65-1.23.45-.86.66-1.29.4-.83.59-1.25.42-.89.62-1.35.35-.84.53-1.26.38-.93.56-1.4.32-.84.47-1.27.35-1,.51-1.45.28-.85.42-1.28.31-1,.45-1.5.25-.86.36-1.3.27-1,.39-1.55.21-.86.31-1.29l.33-1.62.24-1.28c.1-.56.18-1.13.27-1.7.06-.41.13-.83.18-1.25.08-.6.14-1.21.2-1.81,0-.39.09-.78.13-1.18.06-.68.09-1.37.13-2.05,0-.33.05-.66.07-1,0-1,.06-2,.06-3.07h0c0-.48,0-1,0-1.48,0-.1,0-.21,0-.32,0-.44,0-.87-.07-1.31v-.05c0-.76-.11-1.51-.17-2.23H294.8c.15,1.74.3,3.65.3,5.41C295.1,98.77,267.65,126.3,231.24,126.3Z"/>
  <path class="c" d="M366.45,48a68.17,68.17,0,0,0-7.48.42c31.92,3.49,56.59,29.1,56.59,62.39S390.76,169.51,359,173a67.81,67.81,0,0,0,7.46.42c35.29,0,64.07-26.78,64.07-62.61S401.92,48,366.45,48"/>
  <path class="b" d="M333.87,110.44c0-16.48,9.93-30.9,25.43-34.45a32.71,32.71,0,0,0-7.45-.84c-19.73,0-32.94,16.29-32.94,35.29,0,19.37,13.21,35.84,33.3,35.84a31.87,31.87,0,0,0,7.34-.85c-15.74-3.59-25.68-18.19-25.68-35"/>
  <path class="c" d="M303.1,111C303.1,77.7,327,51.92,359,48.42a70.89,70.89,0,0,0-7.48-.42c-35.65,0-63.35,27.15-63.35,63,0,35.48,28.06,62.45,63.35,62.45A69,69,0,0,0,359,173c-31.71-3.5-55.89-29.09-55.89-62"/>
  <path class="b" d="M366.81,75.15a33.89,33.89,0,0,0-7.51.84c15.65,3.61,25.49,18.48,25.49,35,0,16.18-10,30.85-25.24,34.45a34.22,34.22,0,0,0,7.62.85c19.36,0,32.58-16.65,32.58-35.3,0-19-13-35.83-32.94-35.83"/>
  <path class="d" d="M415.55,110.8c0-33.27-24.66-58.89-56.58-62.38C327,51.93,303.1,77.7,303.1,111c0,32.93,24.19,58.51,55.89,62,31.78-3.49,56.56-28.94,56.56-62.2m-48.38,35.48a34.15,34.15,0,0,1-7.62-.85,31.81,31.81,0,0,1-7.34.85c-20.09,0-33.3-16.47-33.3-35.84,0-19,13.21-35.29,32.94-35.29a33.28,33.28,0,0,1,7.45.84,33.82,33.82,0,0,1,7.51-.84c19.91,0,32.94,16.83,32.94,35.84,0,18.63-13.22,35.29-32.58,35.29"/>
  <g>
    <path class="e" d="M366.45,47.26a71.82,71.82,0,0,0-7.5.41,71.29,71.29,0,0,0-7.46-.42c-36.54,0-64.1,27.4-64.1,63.73,0,35.44,28.16,63.19,64.1,63.19a69.57,69.57,0,0,0,7.51-.42,68.35,68.35,0,0,0,7.45.42c36.34,0,64.81-27.83,64.81-63.37S402.79,47.26,366.45,47.26Zm-4.55,2.3c.91.15,1.81.31,2.71.49l.25,0c.86.17,1.72.37,2.57.58l.33.07c.83.21,1.65.44,2.46.67l.38.11c.78.23,1.54.48,2.3.73l.48.16c.71.24,1.41.51,2.1.78l.61.23c.66.26,1.31.55,2,.83l.69.29,1.8.86.77.38c.54.27,1.07.57,1.61.86.29.16.6.31.89.48.48.27.94.56,1.41.84s.68.4,1,.61.8.52,1.2.79.77.49,1.15.75l1,.74c.42.3.84.6,1.25.91l.86.68c.44.35.89.7,1.32,1.06.23.19.44.4.67.59.48.41,1,.82,1.42,1.25l.48.46c.51.48,1,1,1.52,1.46l.32.34c.54.55,1.07,1.1,1.59,1.68l.14.16c.57.63,1.13,1.27,1.67,1.93l0,0a62.55,62.55,0,0,1,3.3,74.32l0,0c-.51.75-1,1.48-1.58,2.21l-.23.28c-.49.64-1,1.27-1.49,1.88l-.43.5c-.46.54-.91,1.07-1.38,1.59-.2.21-.41.42-.61.64-.43.46-.85.91-1.29,1.36l-.79.75c-.4.39-.8.78-1.21,1.16l-1,.88c-.36.31-.72.64-1.09.95s-.83.67-1.25,1l-.92.73c-.49.38-1,.73-1.5,1.09l-.75.55c-.59.41-1.2.8-1.8,1.19l-.54.35c-.65.41-1.32.8-2,1.19l-.42.25q-1.12.63-2.28,1.23l-.21.11A65.24,65.24,0,0,1,359,172.25l-.75-.1c-.74-.1-1.48-.19-2.21-.3l-.49-.09c-.82-.13-1.63-.27-2.43-.44l-.3-.07c-.86-.18-1.72-.37-2.56-.58l-.13,0a62.13,62.13,0,0,1-22.62-10.92l0,0q-1.08-.84-2.13-1.71l-.06-.06c-.68-.58-1.35-1.16-2-1.76-.07-.07-.13-.14-.2-.2q-.9-.84-1.77-1.71l-.33-.36c-.53-.54-1.05-1.08-1.55-1.64l-.45-.53c-.45-.51-.9-1-1.33-1.55-.19-.22-.36-.46-.55-.69-.38-.48-.77-1-1.15-1.47-.21-.28-.4-.57-.61-.86-.33-.45-.66-.91-1-1.37s-.48-.74-.71-1.11-.53-.8-.78-1.2-.5-.85-.74-1.28-.44-.73-.65-1.11-.49-.93-.73-1.4-.38-.7-.55-1.05c-.26-.53-.5-1.07-.75-1.61-.14-.3-.29-.6-.42-.91-.26-.59-.5-1.2-.74-1.8-.11-.26-.22-.52-.32-.78-.25-.64-.48-1.3-.7-2-.08-.23-.17-.45-.25-.68-.22-.66-.41-1.33-.61-2-.07-.23-.15-.46-.22-.7-.18-.67-.35-1.34-.52-2-.06-.24-.13-.48-.18-.73-.17-.69-.3-1.4-.44-2.1-.05-.23-.11-.47-.15-.7-.15-.84-.28-1.67-.4-2.52l-.06-.33c-.11-.81-.2-1.61-.28-2.43,0-.16,0-.31-.05-.47-.07-.78-.12-1.57-.16-2.35,0-.2,0-.39,0-.59-.05-1-.07-2-.07-3s0-2,.07-3c0-.26,0-.52.05-.78,0-.73.08-1.46.15-2.19,0-.44.1-.88.15-1.32s.11-1.07.18-1.6.16-1,.23-1.47.14-.94.23-1.41.2-1,.3-1.45.18-.93.28-1.38.28-1.1.42-1.65c.1-.37.19-.76.29-1.13.15-.54.32-1.07.49-1.6.11-.38.22-.76.34-1.13.18-.55.38-1.09.58-1.63.12-.34.23-.69.36-1,.21-.56.45-1.1.67-1.65l.39-1c.23-.52.47-1,.71-1.54.16-.34.3-.68.47-1,.24-.5.5-1,.75-1.46s.34-.69.53-1,.54-.94.81-1.41.37-.67.57-1,.58-.9.87-1.35.41-.66.63-1,.6-.86.9-1.29.45-.65.69-1,.61-.79.92-1.18.51-.68.77-1l.9-1.06.89-1c.29-.32.6-.63.89-1s.66-.71,1-1.06.59-.58.89-.87.71-.72,1.08-1.06.59-.52.88-.78.78-.72,1.19-1.06l.84-.69c.43-.35.86-.71,1.31-1.05.26-.21.54-.4.8-.6.48-.36.94-.71,1.43-1,.26-.19.53-.36.8-.54.5-.34,1-.69,1.51-1,.26-.17.53-.32.79-.48.53-.33,1.06-.66,1.6-1,.25-.15.52-.28.77-.42.56-.31,1.12-.63,1.7-.92.26-.14.53-.26.79-.39.58-.29,1.15-.58,1.74-.85.28-.12.56-.23.83-.36.59-.26,1.18-.52,1.78-.76l.87-.33c.6-.23,1.2-.47,1.8-.68l.94-.31c.6-.2,1.19-.4,1.8-.58.35-.11.72-.2,1.07-.3.58-.16,1.15-.33,1.73-.47l1.21-.28c.55-.12,1.09-.26,1.65-.37s.92-.17,1.39-.25,1-.19,1.52-.27,1.09-.15,1.63-.22.86-.13,1.29-.17c.94.1,1.86.22,2.79.36Zm-73,61.42c0-35.48,26.91-62.23,62.6-62.23h.7l-1.34.32c-.38.09-.76.17-1.14.27-.6.15-1.2.32-1.79.49l-1,.28c-.78.23-1.55.49-2.31.75l-.4.13c-.9.32-1.78.65-2.65,1l-.79.34c-.6.25-1.2.5-1.8.77l-1,.46c-.52.25-1,.5-1.56.76l-1,.53c-.48.26-1,.52-1.44.79l-1,.59-1.37.83-1,.64-1.32.88-1,.69-1.27.94q-.48.34-.93.72c-.42.32-.83.66-1.24,1l-.88.74c-.41.35-.81.71-1.2,1.07l-.83.77-1.18,1.15-.77.77c-.4.41-.79.84-1.18,1.26-.23.25-.46.49-.68.74-.42.47-.82.95-1.22,1.43l-.55.66c-.49.6-1,1.21-1.42,1.83l-.26.33c-.55.74-1.09,1.5-1.6,2.28l-.12.17c-.47.7-.92,1.41-1.36,2.14-.15.23-.28.47-.42.7-.32.56-.65,1.11-1,1.68l-.47.88c-.28.52-.55,1-.81,1.57-.16.32-.32.65-.47,1-.24.51-.48,1-.71,1.53-.15.35-.3.7-.44,1-.22.51-.42,1-.62,1.53s-.28.73-.42,1.1-.37,1-.54,1.53-.25.77-.38,1.15-.32,1-.47,1.55l-.33,1.18c-.14.52-.27,1-.4,1.57s-.19.8-.28,1.2-.23,1.07-.34,1.61-.16.8-.23,1.21-.18,1.11-.26,1.67c-.06.4-.13.79-.18,1.19-.08.59-.14,1.18-.2,1.77,0,.38-.09.75-.12,1.14-.06.65-.1,1.31-.13,2,0,.33-.05.65-.06,1-.05,1-.07,2-.07,3s0,2,.07,3c0,.33,0,.65.06,1,0,.65.07,1.3.13,1.95,0,.38.08.75.12,1.13.06.58.12,1.16.2,1.74.05.4.12.8.18,1.19.08.55.17,1.1.26,1.64l.24,1.21q.15.8.33,1.59c.09.4.19.79.28,1.19s.26,1,.4,1.55.22.79.34,1.18.3,1,.46,1.52.25.77.38,1.15l.54,1.49.42,1.12c.2.5.4,1,.61,1.48s.3.72.46,1.07c.22.5.46,1,.69,1.48.16.34.32.68.49,1,.25.51.52,1,.78,1.51l.49.92c.3.54.62,1.07.93,1.59.16.26.3.52.46.77.4.66.82,1.3,1.25,1.94.08.12.15.24.23.35.51.76,1,1.51,1.6,2.25l.27.35c.46.6.92,1.2,1.4,1.79l.57.67c.4.47.8.94,1.2,1.39.23.26.47.51.7.76.38.41.77.83,1.17,1.23l.77.77L322,157l.85.76c.39.36.78.71,1.19,1.06l.89.75c.41.33.81.66,1.23,1l.93.72,1.27.93,1,.68,1.31.87,1,.64c.44.28.9.55,1.35.82l1,.6,1.42.76,1,.55c.49.25,1,.48,1.5.72l1,.49,1.66.7.94.4c.78.31,1.57.61,2.37.89l.87.3c.69.23,1.38.46,2.08.67.39.12.79.22,1.19.33s1,.3,1.58.44l1.33.31,1.2.28h-.75C316.39,172.68,288.89,145.57,288.89,111Zm77.56,61.7h-.67c.46-.09.91-.21,1.37-.32s.8-.17,1.19-.27l1.83-.5c.33-.09.65-.17,1-.27.93-.28,1.84-.57,2.74-.88l.21-.08c.83-.29,1.66-.6,2.48-.92.29-.11.57-.24.86-.36.59-.24,1.18-.49,1.76-.75.33-.14.65-.3,1-.45l1.58-.76,1-.52c.51-.26,1-.53,1.5-.8l1-.57c.48-.28,1-.56,1.43-.85l1-.61c.47-.3.93-.61,1.39-.92l.92-.63,1.36-1,.87-.66c.45-.35.89-.7,1.33-1.07.27-.22.55-.44.81-.67.45-.38.89-.76,1.32-1.15.25-.22.5-.44.74-.67l1.33-1.27.65-.64c.46-.47.91-1,1.36-1.43l.52-.56c.51-.56,1-1.14,1.5-1.72l.3-.35a62,62,0,0,0,4.89-6.8l.19-.32c.41-.68.82-1.36,1.21-2.06l.3-.56c.34-.62.68-1.25,1-1.89l.33-.68c.3-.61.58-1.22.86-1.83l.33-.76c.26-.61.51-1.21.75-1.82.11-.27.21-.54.31-.81.23-.61.45-1.22.67-1.83.09-.28.18-.56.28-.84.2-.62.39-1.25.58-1.88l.24-.84c.18-.64.34-1.29.5-1.94.07-.27.14-.54.2-.82.16-.67.3-1.35.43-2l.15-.78q.19-1.08.36-2.19c0-.22.07-.43.1-.65.11-.82.2-1.64.28-2.47,0-.14,0-.28,0-.42.18-2,.28-4,.28-6s-.1-4-.28-6c0-.1,0-.21,0-.31-.08-.87-.18-1.73-.3-2.59,0-.19-.05-.38-.08-.57-.11-.77-.24-1.53-.37-2.29-.05-.24-.09-.47-.14-.7-.14-.71-.28-1.41-.44-2.12-.06-.25-.13-.51-.19-.76-.16-.67-.33-1.34-.52-2-.07-.27-.15-.54-.23-.81-.18-.64-.38-1.28-.59-1.91l-.27-.82c-.21-.62-.44-1.24-.67-1.85-.1-.27-.2-.54-.31-.81-.24-.61-.49-1.21-.75-1.81-.11-.27-.22-.53-.34-.79-.26-.6-.55-1.2-.84-1.79-.11-.25-.23-.49-.35-.74-.31-.61-.63-1.21-1-1.81-.12-.21-.23-.43-.35-.65-.36-.64-.74-1.27-1.12-1.9l-.29-.49c-.48-.78-1-1.55-1.5-2.31h0c-.53-.77-1.07-1.54-1.64-2.29l-.15-.2c-.5-.66-1-1.31-1.54-2l-.57-.66c-.4-.47-.8-.95-1.22-1.41l-.73-.78-1.14-1.21-.84-.82c-.37-.37-.75-.73-1.13-1.09l-.91-.82-1.14-1c-.32-.28-.65-.55-1-.81s-.77-.63-1.15-.93l-1-.79L390,59.3l-1.08-.75-1.22-.81L386.6,57l-1.27-.76c-.38-.22-.75-.45-1.14-.66s-.88-.48-1.33-.71l-1.15-.61-1.42-.68-1.12-.53-1.62-.68c-.33-.14-.66-.29-1-.42-.85-.34-1.72-.66-2.59-1l-.36-.11c-.81-.28-1.64-.55-2.47-.8l-.9-.25c-.64-.18-1.27-.36-1.92-.52-.34-.09-.7-.16-1.05-.24l-1.47-.35h.66c35.5,0,63.32,27.26,63.32,62.05S402,172.68,366.45,172.68Z"/>
    <path class="e" d="M364.88,74.45l-.63.06-1.27.1-.77.11c-.38,0-.76.09-1.13.16l-.69.13c-.36.07-.73.13-1.09.21a33.81,33.81,0,0,0-3.51-.59h-.08c-.56-.06-1.11-.11-1.67-.14l-.26,0c-.64,0-1.28-.06-1.93-.06-19.2,0-33.69,15.5-33.69,36,0,20.86,14.64,36.59,34,36.59.62,0,1.25,0,1.87-.06.45,0,.9-.07,1.35-.11l.5-.05c.57-.06,1.15-.15,1.72-.24l.1,0c.6-.1,1.19-.22,1.78-.35h0l.59.12c.41.08.82.17,1.24.24s.87.12,1.31.18l.56.08a36.64,36.64,0,0,0,3.92.22c18.69,0,33.33-15.83,33.33-36,0-13.9-6.44-25.51-16.42-31.72a32.47,32.47,0,0,0-17.27-4.86h0C366.16,74.4,365.52,74.42,364.88,74.45ZM399,111c0,17-11.91,34.55-31.83,34.55-.69,0-1.37,0-2.05-.07l-.62-.05-1.43-.13-.22,0c13.51-4.71,22.69-18.33,22.69-34.26,0-16.26-9.27-30.1-22.91-34.81l.16,0c.49-.06,1-.1,1.46-.14l.55-.05q1-.06,2-.06C385.17,75.9,399,91,399,111ZM359.3,76.76h0C373.88,80.22,384,94.27,384,111c0,16.37-10.06,30.18-24.48,33.68-14.92-3.48-24.94-17.21-24.94-34.22C334.62,94,344.76,80.18,359.3,76.76Zm-8.82,68.72c-17.69-.9-30.82-15.66-30.82-35,0-19.69,13.84-34.54,32.19-34.54q1,0,2,.06l.59.05,1.38.13.17,0c-13.61,4.65-22.84,18.28-22.84,34.27,0,16.56,9.14,30.14,23.08,34.83l-.18,0c-.38.05-.76.08-1.15.11l-.78.07q-.94.06-1.89.06C351.63,145.53,351.05,145.51,350.48,145.48Z"/>
  </g>
</svg>
