<svg xmlns="http://www.w3.org/2000/svg" viewBox="0 0 311.81 113.39">
  <g>
    <path d="M238.49,27.27a.94.94,0,0,0-.63-.26H212a.94.94,0,0,0-.63.26l-9.17,9a.91.91,0,0,0-.27.64V76.8a.9.9,0,0,0,.23.6L211.48,88a.9.9,0,0,0,.68.3h25.53a.92.92,0,0,0,.68-.3L247.7,77.4a1,1,0,0,0,.23-.6l-.09-21.31a.9.9,0,0,0-.89-.9H227.37a.9.9,0,0,0-.9.91v8.79a.9.9,0,0,0,.9.9h9v7.42l-4.82,5.27H218.25l-4.82-5.27V43.07l4.47-5.3h14l4.47,5.3v4.62a.9.9,0,0,0,.9.9H247a.9.9,0,0,0,.91-.9V36.87a.88.88,0,0,0-.28-.64ZM111.79,57.11l22-28.64a.9.9,0,0,0-.71-1.46H121.19a.91.91,0,0,0-.72.36L102.93,50.65V27.91a.9.9,0,0,0-.9-.9H92.28a.9.9,0,0,0-.9.9v59.5a.9.9,0,0,0,.9.9H102a.9.9,0,0,0,.9-.9V64.84L120.3,88a.91.91,0,0,0,.72.35l12.22,0h0a.92.92,0,0,0,.91-.91.91.91,0,0,0-.31-.68ZM309.6,36.23l-9.17-9a.9.9,0,0,0-.63-.26H271.39a.92.92,0,0,0-.63.26l-9.17,9a.91.91,0,0,0-.27.64V76.8a.94.94,0,0,0,.22.6L270.87,88a.94.94,0,0,0,.69.3h28.08a.92.92,0,0,0,.68-.3l9.33-10.61a.94.94,0,0,0,.22-.6V36.87a.91.91,0,0,0-.27-.64M298.36,72.61l-4.81,5.27h-15.9l-4.82-5.27V43.07l4.47-5.3h16.59l4.47,5.3ZM173.57,28a.87.87,0,0,0-.85-.63H162.4a.9.9,0,0,0-.86.63l-19,59.13a.9.9,0,0,0,.85,1.17h10.41a.9.9,0,0,0,.86-.62L160,70.93h15.2l5.33,16.76a.9.9,0,0,0,.86.62h10.43a.9.9,0,0,0,.91-.9,1,1,0,0,0-.14-.47ZM163,61.45l4.58-14.35,4.58,14.35Z"/>
    <path d="M153.43,95.78h-7.8a.41.41,0,0,0-.41.41v12a.41.41,0,0,0,.41.41h7.8a.41.41,0,0,0,.41-.41v-1.78a.41.41,0,0,0-.41-.41H148v-2.53h4.25a.4.4,0,0,0,.41-.4v-1.78a.41.41,0,0,0-.41-.41H148V98.4h5.42a.41.41,0,0,0,.41-.41v-1.8a.41.41,0,0,0-.41-.41m13.1,0h-8a.41.41,0,0,0-.41.41v1.7a.41.41,0,0,0,.41.41h2.63v9.91a.41.41,0,0,0,.41.41h2a.41.41,0,0,0,.4-.41V98.32h2.6a.42.42,0,0,0,.41-.41v-1.7a.41.41,0,0,0-.41-.41m-41,.11a.41.41,0,0,0-.3-.14h-4.07a.41.41,0,0,0-.31.14l-1.49,1.73a.45.45,0,0,0-.1.27v3.48a.82.82,0,0,0,.25.4l1.78,1.59a.4.4,0,0,0,.27.11h2.67l.71.63v1.37l-.5.63h-1.64l-.82-.89v-.53a.41.41,0,0,0-.4-.41h-1.91a.42.42,0,0,0-.41.41V106a.45.45,0,0,0,.1.27l1.94,2.2a.41.41,0,0,0,.3.14h4.07a.41.41,0,0,0,.31-.14l1.49-1.73a.41.41,0,0,0,.09-.26V103a.61.61,0,0,0-.23-.38l-1.58-1.59a.4.4,0,0,0-.29-.12h-2.89l-.72-.63V98.94l.5-.64h1.71l.81.89v.54a.41.41,0,0,0,.41.4h1.88a.4.4,0,0,0,.4-.4V98.39a.46.46,0,0,0-.09-.27Zm10.93,6.18,4.37-5.67a.4.4,0,0,0,0-.42.41.41,0,0,0-.36-.23h-2.42a.42.42,0,0,0-.33.16l-3.14,4.18V96.18a.41.41,0,0,0-.41-.41h-2a.41.41,0,0,0-.41.41v12a.41.41,0,0,0,.41.41h2a.41.41,0,0,0,.41-.41v-3.9l3.12,4.14a.43.43,0,0,0,.32.17h2.49c.22.06.42-.17.42-.4a.42.42,0,0,0-.17-.33ZM99,95.94a.43.43,0,0,0-.3-.14h-6.4a.42.42,0,0,0-.41.41v12a.42.42,0,0,0,.41.41h6.29a.41.41,0,0,0,.29-.13l1.68-1.74a.43.43,0,0,0,.11-.28V103.6a.41.41,0,0,0-.11-.28l-1-1.08,1-1.23a.38.38,0,0,0,.09-.25V98a.45.45,0,0,0-.1-.27Zm-1.16,9.8-.56.56H94.69v-2.67h2.42l.75.71Zm0-5.38-.57.56h-2.6V98.25h2.42l.75.72Zm13.59-4.23a.4.4,0,0,0-.39-.28H109a.4.4,0,0,0-.38.28l-3.86,12a.41.41,0,0,0,.06.37.43.43,0,0,0,.33.17h2.11a.41.41,0,0,0,.38-.29l1-3.23h2.75l1,3.23a.42.42,0,0,0,.39.29h2.13a.42.42,0,0,0,.41-.41.41.41,0,0,0-.08-.24Zm-2.06,6.61.63-1.94.62,1.94Zm182.33-6.85a.36.36,0,0,0-.28-.12H287a.39.39,0,0,0-.28.12l-1.86,1.81a.45.45,0,0,0-.12.29v8.09a.38.38,0,0,0,.1.27l1.89,2.15a.41.41,0,0,0,.3.14h4.4a.41.41,0,0,0,.31-.14l1.89-2.15a.38.38,0,0,0,.1-.27V98a.4.4,0,0,0-.12-.29Zm-.8,9.25-.85.93h-1.73l-.85-.93V99.33l.79-.93h1.86l.78.93Zm-12.46-9.25a.36.36,0,0,0-.28-.12h-4.47a.38.38,0,0,0-.28.12l-1.86,1.81a.4.4,0,0,0-.12.29v8.09a.38.38,0,0,0,.1.27l1.89,2.15a.41.41,0,0,0,.31.14h4.4a.41.41,0,0,0,.3-.14l1.89-2.15a.43.43,0,0,0,.1-.27V98a.4.4,0,0,0-.12-.29Zm-.8,9.25-.85.93h-1.73l-.85-.93V99.33l.78-.93h1.87l.78.93Zm-25.75-9.25a.36.36,0,0,0-.28-.12h-4.47a.39.39,0,0,0-.28.12L245,97.7a.41.41,0,0,0-.13.29v8.09a.39.39,0,0,0,.11.27l1.88,2.15a.41.41,0,0,0,.31.14h4.39a.4.4,0,0,0,.31-.14l1.89-2.15a.38.38,0,0,0,.1-.27v-2a.4.4,0,0,0-.4-.41h-2a.41.41,0,0,0-.41.41v1l-.85.93h-1.73l-.85-.93V99.33l.79-.93h1.86l.78.93v.86a.41.41,0,0,0,.41.4h2a.4.4,0,0,0,.4-.4V98a.4.4,0,0,0-.12-.29Zm15.22.29a.4.4,0,0,0-.4-.41h-2a.4.4,0,0,0-.4.41v4.74H261V96.18a.41.41,0,0,0-.41-.41h-2a.41.41,0,0,0-.42.41v12a.42.42,0,0,0,.42.41h2a.41.41,0,0,0,.41-.41v-4.72h3.41v4.72a.4.4,0,0,0,.4.41h2c.22.06.42-.17.42-.4a.51.51,0,0,0,0-.13ZM306.22,106h-5.43V96.19a.38.38,0,0,0-.12-.29.37.37,0,0,0-.29-.12h-2a.4.4,0,0,0-.4.41v12a.41.41,0,0,0,.4.41h7.81a.41.41,0,0,0,.4-.41v-1.78a.4.4,0,0,0-.4-.41M190.73,96.13a.4.4,0,0,0-.38-.28h-2.09a.41.41,0,0,0-.39.28l-3.86,12a.44.44,0,0,0,.06.37.43.43,0,0,0,.33.17h2.11a.4.4,0,0,0,.38-.29l1-3.23h2.75l1,3.23a.41.41,0,0,0,.39.29h2.13a.41.41,0,0,0,.32-.65Zm-2,6.61.62-1.94.62,1.94Zm49.92-6.83a.41.41,0,0,0-.3-.14h-4.07a.41.41,0,0,0-.31.14l-1.48,1.73a.45.45,0,0,0-.1.27v3.48a.8.8,0,0,0,.24.4l1.78,1.59a.43.43,0,0,0,.27.11h2.67l.71.63v1.37l-.5.63h-1.64l-.81-.89v-.53a.41.41,0,0,0-.41-.41h-1.91a.41.41,0,0,0-.4.41V106a.45.45,0,0,0,.1.27l1.93,2.2a.41.41,0,0,0,.31.14h4.06a.41.41,0,0,0,.31-.14l1.49-1.73a.42.42,0,0,0,.1-.26V103a.66.66,0,0,0-.23-.38l-1.59-1.59a.4.4,0,0,0-.29-.12h-2.89l-.71-.63V98.94l.5-.64h1.7l.82.89v.54a.4.4,0,0,0,.4.4h1.88a.4.4,0,0,0,.41-.4V98.39a.41.41,0,0,0-.1-.27ZM207.09,106h-5.43l0-9.85a.39.39,0,0,0-.13-.29.36.36,0,0,0-.28-.12h-2a.4.4,0,0,0-.4.41v12a.41.41,0,0,0,.4.41h7.81a.41.41,0,0,0,.4-.41v-1.78a.4.4,0,0,0-.4-.41m-28.78-10.1a.45.45,0,0,0-.31-.14h-6.4a.41.41,0,0,0-.4.41v12a.41.41,0,0,0,.4.41h6.29a.43.43,0,0,0,.3-.13l1.67-1.74a.43.43,0,0,0,.11-.28V103.6a.4.4,0,0,0-.1-.28l-1-1.08,1-1.23a.38.38,0,0,0,.09-.25V98a.39.39,0,0,0-.1-.27Zm-1.16,9.8-.57.56H174v-2.67h2.43l.75.71Zm0-5.38-.57.56H174V98.25h2.43l.75.72ZM220,106h-5.43l0-9.85a.41.41,0,0,0-.41-.41h-2a.41.41,0,0,0-.41.41v12a.42.42,0,0,0,.41.41H220a.41.41,0,0,0,.41-.41v-1.78A.41.41,0,0,0,220,106"/>
    <path d="M38.86,8.68l2.07-1.39L43,8.68l-.68-2.4,2-1.54-2.5-.09-.85-2.34-.86,2.34-2.5.09,2,1.54Zm2.71,15h2.89A13.75,13.75,0,0,1,49.06,14a13,13,0,0,0-7.49-2.82Zm18.7-.8,2.08-1.39,2.07,1.39-.69-2.4,2-1.54-2.5-.09-.85-2.35-.86,2.35-2.5.09,2,1.54Zm-6.26.8a13,13,0,0,0-4-8.78,12.46,12.46,0,0,0-4.3,8.78Zm-17.9,0a12.41,12.41,0,0,0-4.29-8.78,13.1,13.1,0,0,0-4,8.78Zm16-10.51,2.08-1.39,2.07,1.39-.68-2.4,2-1.54L55,9.13l-.85-2.34-.87,2.34-2.49.09,2,1.54ZM37.39,23.67h2.9V11.22A13.07,13.07,0,0,0,32.79,14a13.71,13.71,0,0,1,4.6,9.63M33.58,51.38l-.89,2.79h1.78ZM8.86,70.92A32,32,0,0,0,58.64,97.63l0,0,1-.71L61,96l0,0A31.83,31.83,0,0,0,72,79l.1.1.46-2.7.13-.72v0A32.27,32.27,0,0,0,73,70.92V29.3H8.86Zm8.69,15a27.67,27.67,0,0,1-4.4-13.66,2.82,2.82,0,0,1,3.13.59l5.17,5.16a2.86,2.86,0,0,1,0,4ZM46.86,62.38H44.57l-1,1.16v6.89l1.06,1.16h2.14l1.06-1.16V68.86h-2a.35.35,0,0,1-.36-.35V66.43a.36.36,0,0,1,.36-.36h4.63a.36.36,0,0,1,.36.36v5a.36.36,0,0,1-.09.24l-2.2,2.51a.4.4,0,0,1-.27.12H43.14a.4.4,0,0,1-.27-.12l-2.2-2.51a.36.36,0,0,1-.09-.24V62a.42.42,0,0,1,.1-.26l2.17-2.11a.35.35,0,0,1,.25-.1h5.22a.35.35,0,0,1,.25.1l2.17,2.11a.37.37,0,0,1,.1.26v2.56a.35.35,0,0,1-.35.36h-2.3a.36.36,0,0,1-.35-.36v-1ZM43.44,82.44l-4.79,4.8a2.86,2.86,0,0,1-4,0l-5.16-5.16a2.85,2.85,0,0,1,0-4l4.79-4.79Zm-16-6.39a2.85,2.85,0,0,1-4,0l-5.16-5.17a2.83,2.83,0,0,1,0-4l4.79-4.8,9.18,9.18ZM19.23,88.3l4.22-4.22a2.86,2.86,0,0,1,4,0l5.16,5.17a2.85,2.85,0,0,1,0,4l-3.05,3a28,28,0,0,1-10.35-8m21.7,10.44a27.47,27.47,0,0,1-8.45-1.32l2.15-2.15a2.84,2.84,0,0,1,4,0l3.45,3.44q-.59,0-1.17,0m10.74-2.16a27.18,27.18,0,0,1-6,1.74l-5.06-5.06a2.83,2.83,0,0,1,0-4l4.79-4.8,9.17,9.17Zm10.61-13a.42.42,0,0,1-.09.24L60,86.29a.36.36,0,0,1-.27.12H54.57a.32.32,0,0,1-.26-.12L52.1,83.78a.36.36,0,0,1-.09-.24V74.09a.36.36,0,0,1,.11-.25l2.16-2.12a.35.35,0,0,1,.25-.1h5.22a.35.35,0,0,1,.25.1l2.17,2.12a.41.41,0,0,1,.11.25ZM52.23,55.3,57,50.53a2.85,2.85,0,0,1,4,0l5.16,5.17a2.85,2.85,0,0,1,0,4l-4.77,4.77ZM68.75,70.92c0,.3,0,.58,0,.87l-5.31-5.31,4.77-4.76a2.88,2.88,0,0,1,.56-.43Zm0-32V54.11a2.83,2.83,0,0,1-.56-.42L63,48.53a2.84,2.84,0,0,1,0-4l5.16-5.16a2.49,2.49,0,0,1,.56-.42m-17.1-5.37H66.36a2.84,2.84,0,0,1-.18,3.79L61,42.51a2.86,2.86,0,0,1-4,0l-5.16-5.17a2.83,2.83,0,0,1-.19-3.78m-1.82,5.79L55,44.51a2.84,2.84,0,0,1,0,4L50.23,53.3l-.66-.66-8.52-8.52,4.77-4.77a2.85,2.85,0,0,1,4,0M44,33.56a2.81,2.81,0,0,1-.18,3.78L39,42.12l-8.55-8.56ZM27.51,60.35l4.51-14a.35.35,0,0,1,.34-.25h2.45a.34.34,0,0,1,.33.25l4.47,13.89a.31.31,0,0,1,.07.21.36.36,0,0,1-.36.35H36.84a.35.35,0,0,1-.33-.25L35.28,56.7H31.89l-1.23,3.86a.36.36,0,0,1-.34.25H27.86a.34.34,0,0,1-.29-.14.38.38,0,0,1-.06-.32M16.92,36.43a.36.36,0,0,1,.35-.36h2.31a.36.36,0,0,1,.35.36v5l3.9-5.17a.35.35,0,0,1,.28-.15h2.82a.35.35,0,0,1,.32.2.35.35,0,0,1,0,.38l-5.15,6.69,5.13,6.9a.37.37,0,0,1,.14.28.36.36,0,0,1-.36.36H24.07a.34.34,0,0,1-.28-.14l-3.87-5.14v4.92a.36.36,0,0,1-.35.36h-2.3a.36.36,0,0,1-.35-.36ZM13.11,52.12l8,8-4.8,4.8a2.84,2.84,0,0,1-3.17.57ZM56,74.45l-1,1.16V82.5l1.07,1.16h2.13l1.06-1.16V75.61l-1-1.16ZM25.65,13.16l2.07-1.39,2.07,1.39-.69-2.4,2-1.54-2.49-.09-.86-2.34-.86,2.34-2.5.09,2,1.54Zm-8.21,9.71,2.07-1.39,2.07,1.39-.68-2.4,2-1.54-2.49-.09-.86-2.35-.85,2.35-2.5.09,2,1.54Zm58.4,2.36H5L1.94,29.32V74.23a36.89,36.89,0,0,0,36.85,36.85c16.34,0,29.21-10.91,35-25.46a35.76,35.76,0,0,0,3.08-14.53V26.29a1.06,1.06,0,0,0-1.07-1.06M75.53,71a34.6,34.6,0,0,1-69.2,0V27.22a.5.5,0,0,1,.5-.5H75a.51.51,0,0,1,.5.5Z"/>
  </g>
</svg>
