<svg xmlns="http://www.w3.org/2000/svg" viewBox="0 0 198.43 286.3">
  <defs>
    <style>
      .a {
        fill: #231815;
      }
    </style>
  </defs>
  <path class="a" d="M98,18l5.42-3.62,5.39,3.64L107,11.79l5.14-4-6.52-.25-2.21-6.12-2.25,6.11-6.51.22,5.12,4Zm7,39.07h7.54a35.74,35.74,0,0,1,12.05-25.06A34,34,0,0,0,105,24.66Zm48.75-2,5.41-3.62,5.39,3.65-1.77-6.27,5.13-4-6.5-.25-2.22-6.12-2.25,6.11-6.51.22,5.11,4Zm-16.31,2a34,34,0,0,0-10.32-22.9,32.46,32.46,0,0,0-11.25,22.85Zm-46.65-.11A32.42,32.42,0,0,0,79.6,34.17,34,34,0,0,0,69.18,57Zm41.62-27.27,5.42-3.63,5.39,3.65-1.77-6.27,5.13-4L140,19.29l-2.21-6.12-2.26,6.11-6.5.22,5.12,4ZM94.08,57.07l7.54,0,.07-32.44A34,34,0,0,0,82.14,32,35.68,35.68,0,0,1,94.08,57.07ZM84,129.26l-2.34,7.27h4.65Zm-64.55,50.8A83.48,83.48,0,0,0,149,250l.09.09,2.56-1.84,3.53-2.53-.08-.08a82.89,82.89,0,0,0,28.71-44l.27.27,1.23-7,.33-1.89,0,0a83.75,83.75,0,0,0,1-12.45L186.85,72,19.67,71.58ZM42,219.32a72,72,0,0,1-11.39-35.64,7.4,7.4,0,0,1,8.15,1.57L52.2,198.73a7.42,7.42,0,0,1,0,10.47ZM118.51,158h-6L110,161l0,18,2.76,3h5.56l2.77-3v-4.06l-5.22,0a.92.92,0,0,1-.92-.92l0-5.43a.92.92,0,0,1,.92-.92l12.08,0a.92.92,0,0,1,.92.92l0,13.14a.93.93,0,0,1-.23.62l-5.77,6.53a.91.91,0,0,1-.69.31l-13.4,0a.92.92,0,0,1-.7-.31l-5.74-6.56a.93.93,0,0,1-.23-.61l.06-24.63a.91.91,0,0,1,.28-.66l5.66-5.51a.9.9,0,0,1,.65-.26l13.6,0a1,1,0,0,1,.65.26l5.64,5.54a1,1,0,0,1,.28.66l0,6.67a.92.92,0,0,1-.93.92h-6a.92.92,0,0,1-.92-.92V161Zm-9,52.28L97,222.75a7.42,7.42,0,0,1-10.46,0L73.1,209.24a7.42,7.42,0,0,1,0-10.46l12.52-12.47ZM67.91,193.54a7.43,7.43,0,0,1-10.47,0L44,180a7.4,7.4,0,0,1,0-10.46L56.56,157.1l23.87,24ZM46.37,225.41l11-11a7.44,7.44,0,0,1,10.47,0l13.41,13.48a7.4,7.4,0,0,1,0,10.46l-8,7.94A73,73,0,0,1,46.37,225.41Zm56.49,27.33a72,72,0,0,1-22-3.48l5.64-5.61a7.4,7.4,0,0,1,10.46,0l9,9C104.89,252.71,103.88,252.75,102.86,252.74Zm28-5.56a72.18,72.18,0,0,1-15.52,4.49l-13.16-13.22a7.42,7.42,0,0,1,0-10.46l12.52-12.47,23.86,24Zm27.71-33.92a.93.93,0,0,1-.23.61l-5.77,6.53a.89.89,0,0,1-.69.32l-13.4,0a.87.87,0,0,1-.69-.32l-5.74-6.56a.88.88,0,0,1-.23-.61l.05-24.63a.92.92,0,0,1,.28-.66l5.66-5.51a.94.94,0,0,1,.65-.26l13.6,0a.91.91,0,0,1,.65.26l5.64,5.54a.91.91,0,0,1,.28.66Zm-26-73.66L145,127.2a7.42,7.42,0,0,1,10.46,0l13.42,13.49a7.4,7.4,0,0,1,0,10.45l-12.45,12.4Zm42.94,40.81c0,.75,0,1.5-.06,2.25l-13.8-13.86,12.45-12.4a7.72,7.72,0,0,1,1.47-1.1ZM175.7,97l-.09,39.57a7.36,7.36,0,0,1-1.46-1.1L160.73,122a7.42,7.42,0,0,1,0-10.46l13.48-13.42A7.72,7.72,0,0,1,175.7,97ZM131.18,82.93l38.34.08a7.4,7.4,0,0,1-.51,9.87L155.53,106.3a7.42,7.42,0,0,1-10.46,0L131.64,92.79A7.4,7.4,0,0,1,131.18,82.93ZM126.4,98l13.43,13.48a7.42,7.42,0,0,1,0,10.46l-12.45,12.4-1.7-1.71-22.16-22.26L115.94,98A7.41,7.41,0,0,1,126.4,98ZM111.22,82.88a7.39,7.39,0,0,1-.5,9.87l-12.45,12.4L76,82.8ZM68.12,152.6,80,116.16a.92.92,0,0,1,.88-.64l6.36,0a.92.92,0,0,1,.88.64l11.58,36.24a.89.89,0,0,1,.17.54.93.93,0,0,1-.93.92l-6.46,0a.92.92,0,0,1-.88-.65l-3.18-10.08-8.84,0L76.3,153.18a.92.92,0,0,1-.88.64H69a.93.93,0,0,1-.75-.38A.91.91,0,0,1,68.12,152.6ZM40.63,90.21a.93.93,0,0,1,.93-.92h6a.93.93,0,0,1,.92.93l0,12.92L58.65,89.7a.91.91,0,0,1,.74-.37l7.36,0a.93.93,0,0,1,.83.52,1,1,0,0,1-.1,1L54,108.26l13.34,18a.93.93,0,0,1,.36.74.92.92,0,0,1-.92.92h-.05l-7.54,0a.94.94,0,0,1-.74-.37l-10.05-13.4,0,12.82a.91.91,0,0,1-.92.92h-6a.93.93,0,0,1-.92-.93Zm-10,40.86,20.7,20.79L38.82,164.32a7.41,7.41,0,0,1-8.26,1.48Zm111.62,58.45-2.56,3,0,17.94,2.75,3H148l2.77-3,0-17.94-2.55-3ZM63.52,29.63,68.93,26l5.39,3.65-1.77-6.27,5.13-4-6.5-.25L69,13l-2.25,6.11-6.51.22,5.12,4ZM42.08,54.88l5.41-3.62,5.39,3.65-1.77-6.27,5.13-4-6.51-.25-2.21-6.12-2.25,6.11-6.51.22,5.12,4Zm152.19,6.47L9.67,60.94l-8,10.64L1.39,188.63a96.14,96.14,0,0,0,95.82,96.25c42.59.1,76.2-28.26,91.46-66.13a93.18,93.18,0,0,0,8.11-37.87L197,64.13A2.78,2.78,0,0,0,194.27,61.35Zm-1.09,119.22a90.17,90.17,0,1,1-180.34-.4l.26-114a1.3,1.3,0,0,1,1.3-1.31l177.73.4a1.31,1.31,0,0,1,1.31,1.3Z"/>
</svg>
